<mxfile host="65bd71144e">
    <diagram id="tr8WCDj-hul7nBdrf4UF" name="Страница 1">
        <mxGraphModel dx="555" dy="431" grid="1" gridSize="10" guides="1" tooltips="1" connect="0" arrows="1" fold="1" page="1" pageScale="1" pageWidth="827" pageHeight="1169" math="0" shadow="0">
            <root>
                <mxCell id="0"/>
                <mxCell id="1" parent="0"/>
                <mxCell id="2" style="edgeStyle=orthogonalEdgeStyle;rounded=0;orthogonalLoop=1;jettySize=auto;html=1;" parent="1" source="3" edge="1">
                    <mxGeometry relative="1" as="geometry">
                        <mxPoint x="375" y="150" as="targetPoint"/>
                    </mxGeometry>
                </mxCell>
                <mxCell id="3" value="Запуск" style="rounded=1;whiteSpace=wrap;html=1;arcSize=50;" parent="1" vertex="1">
                    <mxGeometry x="305" y="20" width="140" height="40" as="geometry"/>
                </mxCell>
                <mxCell id="5" value="#include &amp;lt;iostream&amp;gt;&lt;br&gt;using namespace std;" style="strokeWidth=2;html=1;shape=mxgraph.flowchart.annotation_2;align=left;labelPosition=right;pointerEvents=1;" parent="1" vertex="1">
                    <mxGeometry x="458.01" y="40" width="20" height="80" as="geometry"/>
                </mxCell>
                <mxCell id="6" value="" style="endArrow=none;dashed=1;html=1;entryX=0;entryY=0.5;entryDx=0;entryDy=0;entryPerimeter=0;" parent="1" target="5" edge="1">
                    <mxGeometry width="50" height="50" relative="1" as="geometry">
                        <mxPoint x="375" y="80" as="sourcePoint"/>
                        <mxPoint x="465" y="70" as="targetPoint"/>
                    </mxGeometry>
                </mxCell>
                <mxCell id="7" value="Конец" style="rounded=1;whiteSpace=wrap;html=1;arcSize=50;" parent="1" vertex="1">
                    <mxGeometry x="290" y="1904" width="140" height="40" as="geometry"/>
                </mxCell>
                <mxCell id="10" value="return 0;&lt;br&gt;}" style="strokeWidth=2;html=1;shape=mxgraph.flowchart.annotation_2;align=left;labelPosition=right;pointerEvents=1;" parent="1" vertex="1">
                    <mxGeometry x="461.75" y="1854" width="20" height="60" as="geometry"/>
                </mxCell>
                <mxCell id="11" value="" style="endArrow=none;dashed=1;html=1;entryX=0;entryY=0.5;entryDx=0;entryDy=0;entryPerimeter=0;" parent="1" edge="1">
                    <mxGeometry width="50" height="50" relative="1" as="geometry">
                        <mxPoint x="361.75" y="1884" as="sourcePoint"/>
                        <mxPoint x="461.75" y="1884" as="targetPoint"/>
                    </mxGeometry>
                </mxCell>
                <mxCell id="383" style="edgeStyle=orthogonalEdgeStyle;html=1;rounded=0;" parent="1" source="354" target="382" edge="1">
                    <mxGeometry relative="1" as="geometry"/>
                </mxCell>
                <mxCell id="354" value="int main() {" style="ellipse;whiteSpace=wrap;html=1;" parent="1" vertex="1">
                    <mxGeometry x="315" y="150" width="120" height="60" as="geometry"/>
                </mxCell>
                <mxCell id="369" style="edgeStyle=orthogonalEdgeStyle;rounded=0;html=1;" parent="1" source="359" edge="1">
                    <mxGeometry relative="1" as="geometry">
                        <mxPoint x="745" y="240" as="targetPoint"/>
                    </mxGeometry>
                </mxCell>
                <mxCell id="359" value="&lt;div&gt;struct Node&lt;/div&gt;" style="ellipse;whiteSpace=wrap;html=1;" parent="1" vertex="1">
                    <mxGeometry x="685" y="150" width="120" height="60" as="geometry"/>
                </mxCell>
                <mxCell id="367" style="edgeStyle=orthogonalEdgeStyle;rounded=0;html=1;" parent="1" target="7" edge="1">
                    <mxGeometry relative="1" as="geometry">
                        <mxPoint x="360.005" y="1784" as="sourcePoint"/>
                    </mxGeometry>
                </mxCell>
                <mxCell id="386" style="edgeStyle=orthogonalEdgeStyle;rounded=0;html=1;" parent="1" source="382" target="384" edge="1">
                    <mxGeometry relative="1" as="geometry"/>
                </mxCell>
                <mxCell id="382" value="setlocale(LC_ALL, &quot;Russian&quot;);" style="rounded=0;whiteSpace=wrap;html=1;" parent="1" vertex="1">
                    <mxGeometry x="300" y="250" width="150" height="40" as="geometry"/>
                </mxCell>
                <mxCell id="387" style="edgeStyle=orthogonalEdgeStyle;rounded=0;html=1;" parent="1" source="384" target="385" edge="1">
                    <mxGeometry relative="1" as="geometry"/>
                </mxCell>
                <mxCell id="384" value="int n;" style="rounded=0;whiteSpace=wrap;html=1;" parent="1" vertex="1">
                    <mxGeometry x="300" y="310" width="150" height="40" as="geometry"/>
                </mxCell>
                <mxCell id="391" style="edgeStyle=orthogonalEdgeStyle;rounded=0;html=1;" parent="1" source="385" target="390" edge="1">
                    <mxGeometry relative="1" as="geometry"/>
                </mxCell>
                <mxCell id="385" value="int count = 1;" style="rounded=0;whiteSpace=wrap;html=1;" parent="1" vertex="1">
                    <mxGeometry x="300" y="370" width="150" height="40" as="geometry"/>
                </mxCell>
                <mxCell id="393" style="edgeStyle=orthogonalEdgeStyle;rounded=0;html=1;" parent="1" source="390" target="392" edge="1">
                    <mxGeometry relative="1" as="geometry"/>
                </mxCell>
                <mxCell id="390" value="cout &amp;lt;&amp;lt; &quot;Введите размер стака: &quot;;" style="shape=parallelogram;perimeter=parallelogramPerimeter;whiteSpace=wrap;html=1;fixedSize=1;" parent="1" vertex="1">
                    <mxGeometry x="188.38" y="440" width="373.25" height="40" as="geometry"/>
                </mxCell>
                <mxCell id="394" style="edgeStyle=orthogonalEdgeStyle;rounded=0;html=1;" parent="1" source="392" edge="1">
                    <mxGeometry relative="1" as="geometry">
                        <mxPoint x="375" y="560" as="targetPoint"/>
                    </mxGeometry>
                </mxCell>
                <mxCell id="392" value="cin &amp;gt;&amp;gt; n;" style="shape=parallelogram;perimeter=parallelogramPerimeter;whiteSpace=wrap;html=1;fixedSize=1;" parent="1" vertex="1">
                    <mxGeometry x="188.38" y="500" width="373.25" height="40" as="geometry"/>
                </mxCell>
                <mxCell id="414" style="edgeStyle=orthogonalEdgeStyle;rounded=0;html=1;" parent="1" source="412" target="413" edge="1">
                    <mxGeometry relative="1" as="geometry"/>
                </mxCell>
                <mxCell id="412" value="T data;" style="rounded=0;whiteSpace=wrap;html=1;" parent="1" vertex="1">
                    <mxGeometry x="670" y="240" width="150" height="40" as="geometry"/>
                </mxCell>
                <mxCell id="413" value="Node&amp;lt;T&amp;gt;* next;" style="rounded=0;whiteSpace=wrap;html=1;" parent="1" vertex="1">
                    <mxGeometry x="670" y="300" width="150" height="40" as="geometry"/>
                </mxCell>
                <mxCell id="415" style="edgeStyle=orthogonalEdgeStyle;rounded=0;html=1;" parent="1" source="416" edge="1">
                    <mxGeometry relative="1" as="geometry">
                        <mxPoint x="745" y="460" as="targetPoint"/>
                    </mxGeometry>
                </mxCell>
                <mxCell id="416" value="&lt;div&gt;struct Stack&lt;/div&gt;" style="ellipse;whiteSpace=wrap;html=1;" parent="1" vertex="1">
                    <mxGeometry x="685" y="370" width="120" height="60" as="geometry"/>
                </mxCell>
                <mxCell id="417" style="edgeStyle=orthogonalEdgeStyle;rounded=0;html=1;" parent="1" source="418" target="419" edge="1">
                    <mxGeometry relative="1" as="geometry"/>
                </mxCell>
                <mxCell id="418" value="Node&amp;lt;T&amp;gt;* head = nullptr;" style="rounded=0;whiteSpace=wrap;html=1;" parent="1" vertex="1">
                    <mxGeometry x="670" y="460" width="150" height="40" as="geometry"/>
                </mxCell>
                <mxCell id="419" value="int size = 0;" style="rounded=0;whiteSpace=wrap;html=1;" parent="1" vertex="1">
                    <mxGeometry x="670" y="520" width="150" height="40" as="geometry"/>
                </mxCell>
                <mxCell id="422" style="edgeStyle=orthogonalEdgeStyle;rounded=0;html=1;" parent="1" source="420" target="421" edge="1">
                    <mxGeometry relative="1" as="geometry"/>
                </mxCell>
                <mxCell id="420" value="&lt;div&gt;void setNode(Node&amp;lt;T&amp;gt;&amp;amp; node, T data, Node&amp;lt;T&amp;gt;* next = null)&lt;/div&gt;" style="ellipse;whiteSpace=wrap;html=1;" parent="1" vertex="1">
                    <mxGeometry x="1037" y="150" width="190" height="80" as="geometry"/>
                </mxCell>
                <mxCell id="424" style="edgeStyle=orthogonalEdgeStyle;rounded=0;html=1;" parent="1" source="421" target="423" edge="1">
                    <mxGeometry relative="1" as="geometry"/>
                </mxCell>
                <mxCell id="421" value="node = new Node&amp;lt;T&amp;gt;;" style="rounded=0;whiteSpace=wrap;html=1;" parent="1" vertex="1">
                    <mxGeometry x="1057" y="260" width="150" height="40" as="geometry"/>
                </mxCell>
                <mxCell id="426" style="edgeStyle=orthogonalEdgeStyle;rounded=0;html=1;" parent="1" source="423" edge="1">
                    <mxGeometry relative="1" as="geometry">
                        <mxPoint x="1132" y="390" as="targetPoint"/>
                    </mxGeometry>
                </mxCell>
                <mxCell id="423" value="node-&amp;gt;next = next;" style="rounded=0;whiteSpace=wrap;html=1;" parent="1" vertex="1">
                    <mxGeometry x="1057" y="320" width="150" height="40" as="geometry"/>
                </mxCell>
                <mxCell id="436" value="Конец" style="ellipse;whiteSpace=wrap;html=1;" parent="1" vertex="1">
                    <mxGeometry x="1072" y="450" width="120" height="60" as="geometry"/>
                </mxCell>
                <mxCell id="442" style="edgeStyle=orthogonalEdgeStyle;rounded=0;html=1;" parent="1" source="440" edge="1">
                    <mxGeometry relative="1" as="geometry">
                        <mxPoint x="1995" y="275" as="targetPoint"/>
                    </mxGeometry>
                </mxCell>
                <mxCell id="440" value="&lt;div&gt;void printStack(Stack&amp;lt;T&amp;gt;&amp;amp; tmp)&lt;/div&gt;" style="ellipse;whiteSpace=wrap;html=1;" parent="1" vertex="1">
                    <mxGeometry x="1917.5" y="190" width="155" height="55" as="geometry"/>
                </mxCell>
                <mxCell id="445" style="edgeStyle=orthogonalEdgeStyle;rounded=0;html=1;" parent="1" source="443" target="444" edge="1">
                    <mxGeometry relative="1" as="geometry"/>
                </mxCell>
                <mxCell id="443" value="Node* currentnode = list.headnode;" style="rounded=0;whiteSpace=wrap;html=1;" parent="1" vertex="1">
                    <mxGeometry x="1920" y="275" width="150" height="40" as="geometry"/>
                </mxCell>
                <mxCell id="447" value="1" style="edgeStyle=orthogonalEdgeStyle;rounded=0;html=1;" parent="1" source="444" target="446" edge="1">
                    <mxGeometry relative="1" as="geometry"/>
                </mxCell>
                <mxCell id="452" value="0" style="edgeStyle=orthogonalEdgeStyle;rounded=0;html=1;" parent="1" source="444" target="451" edge="1">
                    <mxGeometry x="-0.92" relative="1" as="geometry">
                        <Array as="points">
                            <mxPoint x="2150" y="385"/>
                            <mxPoint x="2150" y="630"/>
                            <mxPoint x="1995" y="630"/>
                        </Array>
                        <mxPoint as="offset"/>
                    </mxGeometry>
                </mxCell>
                <mxCell id="444" value="while (currentnode != nullptr)" style="rhombus;whiteSpace=wrap;html=1;" parent="1" vertex="1">
                    <mxGeometry x="1900" y="345" width="190" height="80" as="geometry"/>
                </mxCell>
                <mxCell id="449" style="edgeStyle=orthogonalEdgeStyle;rounded=0;html=1;" parent="1" source="446" target="448" edge="1">
                    <mxGeometry relative="1" as="geometry"/>
                </mxCell>
                <mxCell id="446" value="cout &amp;lt;&amp;lt; currentnode-&amp;gt;data &amp;lt;&amp;lt; &quot; &quot;;" style="shape=parallelogram;perimeter=parallelogramPerimeter;whiteSpace=wrap;html=1;fixedSize=1;" parent="1" vertex="1">
                    <mxGeometry x="1875" y="460" width="240" height="40" as="geometry"/>
                </mxCell>
                <mxCell id="450" style="edgeStyle=orthogonalEdgeStyle;rounded=0;html=1;entryX=-0.005;entryY=0.525;entryDx=0;entryDy=0;entryPerimeter=0;" parent="1" source="448" target="444" edge="1">
                    <mxGeometry relative="1" as="geometry">
                        <Array as="points">
                            <mxPoint x="1995" y="600"/>
                            <mxPoint x="1840" y="600"/>
                            <mxPoint x="1840" y="387"/>
                        </Array>
                    </mxGeometry>
                </mxCell>
                <mxCell id="448" value="currentnode = currentnode-&amp;gt;next;" style="rounded=0;whiteSpace=wrap;html=1;" parent="1" vertex="1">
                    <mxGeometry x="1920" y="530" width="150" height="40" as="geometry"/>
                </mxCell>
                <mxCell id="451" value="&lt;div&gt;Конец&lt;/div&gt;" style="ellipse;whiteSpace=wrap;html=1;" parent="1" vertex="1">
                    <mxGeometry x="1935" y="670" width="120" height="60" as="geometry"/>
                </mxCell>
                <mxCell id="478" value="template &amp;lt;typename T&amp;gt;" style="strokeWidth=2;html=1;shape=mxgraph.flowchart.annotation_2;align=left;labelPosition=right;pointerEvents=1;" vertex="1" parent="1">
                    <mxGeometry x="838.0100000000002" y="195" width="20" height="50" as="geometry"/>
                </mxCell>
                <mxCell id="479" value="" style="endArrow=none;dashed=1;html=1;entryX=0;entryY=0.5;entryDx=0;entryDy=0;entryPerimeter=0;" edge="1" parent="1" target="478">
                    <mxGeometry width="50" height="50" relative="1" as="geometry">
                        <mxPoint x="750" y="220" as="sourcePoint"/>
                        <mxPoint x="840" y="210" as="targetPoint"/>
                    </mxGeometry>
                </mxCell>
                <mxCell id="480" value="template &amp;lt;typename T&amp;gt;" style="strokeWidth=2;html=1;shape=mxgraph.flowchart.annotation_2;align=left;labelPosition=right;pointerEvents=1;" vertex="1" parent="1">
                    <mxGeometry x="838.0100000000002" y="410" width="20" height="50" as="geometry"/>
                </mxCell>
                <mxCell id="481" value="" style="endArrow=none;dashed=1;html=1;entryX=0;entryY=0.5;entryDx=0;entryDy=0;entryPerimeter=0;" edge="1" parent="1" target="480">
                    <mxGeometry width="50" height="50" relative="1" as="geometry">
                        <mxPoint x="750" y="435" as="sourcePoint"/>
                        <mxPoint x="840" y="425" as="targetPoint"/>
                    </mxGeometry>
                </mxCell>
                <mxCell id="482" value="template &amp;lt;typename T&amp;gt;" style="strokeWidth=2;html=1;shape=mxgraph.flowchart.annotation_2;align=left;labelPosition=right;pointerEvents=1;" vertex="1" parent="1">
                    <mxGeometry x="1220.0100000000002" y="210" width="20" height="50" as="geometry"/>
                </mxCell>
                <mxCell id="483" value="" style="endArrow=none;dashed=1;html=1;entryX=0;entryY=0.5;entryDx=0;entryDy=0;entryPerimeter=0;" edge="1" parent="1" target="482">
                    <mxGeometry width="50" height="50" relative="1" as="geometry">
                        <mxPoint x="1132" y="235" as="sourcePoint"/>
                        <mxPoint x="1222" y="225" as="targetPoint"/>
                    </mxGeometry>
                </mxCell>
                <mxCell id="485" style="edgeStyle=orthogonalEdgeStyle;html=1;" edge="1" parent="1" source="484" target="436">
                    <mxGeometry relative="1" as="geometry"/>
                </mxCell>
                <mxCell id="484" value="node-&amp;gt;data = data;" style="rounded=0;whiteSpace=wrap;html=1;" vertex="1" parent="1">
                    <mxGeometry x="1057" y="390" width="150" height="40" as="geometry"/>
                </mxCell>
                <mxCell id="486" style="edgeStyle=orthogonalEdgeStyle;rounded=0;html=1;" edge="1" parent="1" source="487" target="489">
                    <mxGeometry relative="1" as="geometry"/>
                </mxCell>
                <mxCell id="487" value="&lt;div&gt;void Push(Stack&amp;lt;T&amp;gt;&amp;amp; tmp, const T&amp;amp; data)&lt;/div&gt;" style="ellipse;whiteSpace=wrap;html=1;" vertex="1" parent="1">
                    <mxGeometry x="1420" y="160" width="190" height="80" as="geometry"/>
                </mxCell>
                <mxCell id="488" style="edgeStyle=orthogonalEdgeStyle;rounded=0;html=1;" edge="1" parent="1" source="489" target="491">
                    <mxGeometry relative="1" as="geometry"/>
                </mxCell>
                <mxCell id="489" value="Node&amp;lt;T&amp;gt;* newnode = new Node&amp;lt;T&amp;gt;;" style="rounded=0;whiteSpace=wrap;html=1;" vertex="1" parent="1">
                    <mxGeometry x="1440" y="270" width="150" height="40" as="geometry"/>
                </mxCell>
                <mxCell id="499" style="edgeStyle=orthogonalEdgeStyle;rounded=0;html=1;" edge="1" parent="1" source="491" target="496">
                    <mxGeometry relative="1" as="geometry"/>
                </mxCell>
                <mxCell id="491" value="newnode-&amp;gt;next = tmp.head;" style="rounded=0;whiteSpace=wrap;html=1;" vertex="1" parent="1">
                    <mxGeometry x="1440" y="330" width="150" height="40" as="geometry"/>
                </mxCell>
                <mxCell id="492" value="Конец" style="ellipse;whiteSpace=wrap;html=1;" vertex="1" parent="1">
                    <mxGeometry x="1455" y="570" width="120" height="60" as="geometry"/>
                </mxCell>
                <mxCell id="493" value="template &amp;lt;typename T&amp;gt;" style="strokeWidth=2;html=1;shape=mxgraph.flowchart.annotation_2;align=left;labelPosition=right;pointerEvents=1;" vertex="1" parent="1">
                    <mxGeometry x="1603.0100000000002" y="220" width="20" height="50" as="geometry"/>
                </mxCell>
                <mxCell id="494" value="" style="endArrow=none;dashed=1;html=1;entryX=0;entryY=0.5;entryDx=0;entryDy=0;entryPerimeter=0;" edge="1" parent="1" target="493">
                    <mxGeometry width="50" height="50" relative="1" as="geometry">
                        <mxPoint x="1515" y="245" as="sourcePoint"/>
                        <mxPoint x="1605" y="235" as="targetPoint"/>
                    </mxGeometry>
                </mxCell>
                <mxCell id="500" style="edgeStyle=orthogonalEdgeStyle;rounded=0;html=1;" edge="1" parent="1" source="496" target="497">
                    <mxGeometry relative="1" as="geometry"/>
                </mxCell>
                <mxCell id="503" style="edgeStyle=orthogonalEdgeStyle;rounded=0;html=1;entryX=0.913;entryY=0;entryDx=0;entryDy=0;entryPerimeter=0;" edge="1" parent="1" source="496" target="491">
                    <mxGeometry relative="1" as="geometry"/>
                </mxCell>
                <mxCell id="496" value="newnode-&amp;gt;data = data;" style="rounded=0;whiteSpace=wrap;html=1;" vertex="1" parent="1">
                    <mxGeometry x="1440" y="390" width="150" height="40" as="geometry"/>
                </mxCell>
                <mxCell id="501" style="edgeStyle=orthogonalEdgeStyle;rounded=0;html=1;" edge="1" parent="1" source="497" target="498">
                    <mxGeometry relative="1" as="geometry"/>
                </mxCell>
                <mxCell id="497" value="tmp.head = newnode;" style="rounded=0;whiteSpace=wrap;html=1;" vertex="1" parent="1">
                    <mxGeometry x="1440" y="450" width="150" height="40" as="geometry"/>
                </mxCell>
                <mxCell id="502" style="edgeStyle=orthogonalEdgeStyle;rounded=0;html=1;" edge="1" parent="1" source="498" target="492">
                    <mxGeometry relative="1" as="geometry"/>
                </mxCell>
                <mxCell id="498" value="tmp.size++;" style="rounded=0;whiteSpace=wrap;html=1;" vertex="1" parent="1">
                    <mxGeometry x="1440" y="510" width="150" height="40" as="geometry"/>
                </mxCell>
                <mxCell id="504" style="edgeStyle=orthogonalEdgeStyle;rounded=0;html=1;" edge="1" parent="1" source="505">
                    <mxGeometry relative="1" as="geometry">
                        <mxPoint x="1125.49" y="730" as="targetPoint"/>
                    </mxGeometry>
                </mxCell>
                <mxCell id="505" value="&lt;div&gt;void pop(Stack&amp;lt;T&amp;gt;&amp;amp; tmp)&lt;/div&gt;" style="ellipse;whiteSpace=wrap;html=1;" vertex="1" parent="1">
                    <mxGeometry x="1030.49" y="620" width="190" height="80" as="geometry"/>
                </mxCell>
                <mxCell id="510" value="Конец" style="ellipse;whiteSpace=wrap;html=1;" vertex="1" parent="1">
                    <mxGeometry x="1057" y="1120" width="123" height="60" as="geometry"/>
                </mxCell>
                <mxCell id="511" value="template &amp;lt;typename T&amp;gt;" style="strokeWidth=2;html=1;shape=mxgraph.flowchart.annotation_2;align=left;labelPosition=right;pointerEvents=1;" vertex="1" parent="1">
                    <mxGeometry x="1213.5000000000002" y="680" width="20" height="50" as="geometry"/>
                </mxCell>
                <mxCell id="512" value="" style="endArrow=none;dashed=1;html=1;entryX=0;entryY=0.5;entryDx=0;entryDy=0;entryPerimeter=0;" edge="1" parent="1" target="511">
                    <mxGeometry width="50" height="50" relative="1" as="geometry">
                        <mxPoint x="1125.49" y="705" as="sourcePoint"/>
                        <mxPoint x="1215.49" y="695" as="targetPoint"/>
                    </mxGeometry>
                </mxCell>
                <mxCell id="517" value="1" style="edgeStyle=orthogonalEdgeStyle;rounded=0;html=1;" edge="1" parent="1" source="515" target="516">
                    <mxGeometry relative="1" as="geometry">
                        <Array as="points">
                            <mxPoint x="960" y="765"/>
                        </Array>
                    </mxGeometry>
                </mxCell>
                <mxCell id="525" value="0" style="edgeStyle=orthogonalEdgeStyle;rounded=0;html=1;" edge="1" parent="1" source="515">
                    <mxGeometry x="-0.9256" relative="1" as="geometry">
                        <mxPoint x="1120" y="1100" as="targetPoint"/>
                        <Array as="points">
                            <mxPoint x="1260" y="765"/>
                            <mxPoint x="1260" y="1100"/>
                        </Array>
                        <mxPoint as="offset"/>
                    </mxGeometry>
                </mxCell>
                <mxCell id="515" value="if (tmp.head != nullptr)" style="rhombus;whiteSpace=wrap;html=1;" vertex="1" parent="1">
                    <mxGeometry x="1040.49" y="730" width="170" height="70" as="geometry"/>
                </mxCell>
                <mxCell id="521" style="edgeStyle=orthogonalEdgeStyle;rounded=0;html=1;" edge="1" parent="1" source="516" target="518">
                    <mxGeometry relative="1" as="geometry"/>
                </mxCell>
                <mxCell id="516" value="Node&amp;lt;T&amp;gt;* deleted = tmp.head;" style="rounded=0;whiteSpace=wrap;html=1;" vertex="1" parent="1">
                    <mxGeometry x="877" y="800" width="160" height="50" as="geometry"/>
                </mxCell>
                <mxCell id="522" style="edgeStyle=orthogonalEdgeStyle;rounded=0;html=1;" edge="1" parent="1" source="518" target="520">
                    <mxGeometry relative="1" as="geometry"/>
                </mxCell>
                <mxCell id="518" value="tmp.head = tmp.head-&amp;gt;next;" style="rounded=0;whiteSpace=wrap;html=1;" vertex="1" parent="1">
                    <mxGeometry x="877" y="870" width="160" height="50" as="geometry"/>
                </mxCell>
                <mxCell id="524" style="edgeStyle=orthogonalEdgeStyle;rounded=0;html=1;" edge="1" parent="1" source="519">
                    <mxGeometry relative="1" as="geometry">
                        <mxPoint x="1120" y="1100" as="targetPoint"/>
                        <Array as="points">
                            <mxPoint x="957" y="1100"/>
                        </Array>
                    </mxGeometry>
                </mxCell>
                <mxCell id="519" value="tmp.size--;" style="rounded=0;whiteSpace=wrap;html=1;" vertex="1" parent="1">
                    <mxGeometry x="877" y="1010" width="160" height="50" as="geometry"/>
                </mxCell>
                <mxCell id="523" style="edgeStyle=orthogonalEdgeStyle;rounded=0;html=1;" edge="1" parent="1" source="520" target="519">
                    <mxGeometry relative="1" as="geometry"/>
                </mxCell>
                <mxCell id="520" value="delete deleted;" style="rounded=0;whiteSpace=wrap;html=1;" vertex="1" parent="1">
                    <mxGeometry x="877" y="940" width="160" height="50" as="geometry"/>
                </mxCell>
                <mxCell id="526" value="" style="endArrow=classic;html=1;rounded=0;" edge="1" parent="1" target="510">
                    <mxGeometry width="50" height="50" relative="1" as="geometry">
                        <mxPoint x="1120" y="1100" as="sourcePoint"/>
                        <mxPoint x="1090" y="990" as="targetPoint"/>
                    </mxGeometry>
                </mxCell>
                <mxCell id="528" value="template &amp;lt;typename T&amp;gt;" style="strokeWidth=2;html=1;shape=mxgraph.flowchart.annotation_2;align=left;labelPosition=right;pointerEvents=1;" vertex="1" parent="1">
                    <mxGeometry x="2088.01" y="225" width="20" height="50" as="geometry"/>
                </mxCell>
                <mxCell id="529" value="" style="endArrow=none;dashed=1;html=1;entryX=0;entryY=0.5;entryDx=0;entryDy=0;entryPerimeter=0;" edge="1" parent="1" target="528">
                    <mxGeometry width="50" height="50" relative="1" as="geometry">
                        <mxPoint x="2000" y="250" as="sourcePoint"/>
                        <mxPoint x="2090" y="240" as="targetPoint"/>
                    </mxGeometry>
                </mxCell>
                <mxCell id="533" style="edgeStyle=orthogonalEdgeStyle;rounded=0;html=1;" edge="1" parent="1" source="530" target="531">
                    <mxGeometry relative="1" as="geometry"/>
                </mxCell>
                <mxCell id="530" value="double k;" style="rounded=0;whiteSpace=wrap;html=1;" vertex="1" parent="1">
                    <mxGeometry x="300" y="560" width="150" height="40" as="geometry"/>
                </mxCell>
                <mxCell id="534" style="edgeStyle=orthogonalEdgeStyle;rounded=0;html=1;" edge="1" parent="1" source="531" target="532">
                    <mxGeometry relative="1" as="geometry"/>
                </mxCell>
                <mxCell id="531" value="Stack &amp;lt;double&amp;gt; st;" style="rounded=0;whiteSpace=wrap;html=1;" vertex="1" parent="1">
                    <mxGeometry x="300" y="620" width="150" height="40" as="geometry"/>
                </mxCell>
                <mxCell id="536" style="edgeStyle=orthogonalEdgeStyle;rounded=0;html=1;" edge="1" parent="1" source="532" target="535">
                    <mxGeometry relative="1" as="geometry"/>
                </mxCell>
                <mxCell id="532" value="Stack &amp;lt;double&amp;gt; st2;" style="rounded=0;whiteSpace=wrap;html=1;" vertex="1" parent="1">
                    <mxGeometry x="300" y="680" width="150" height="40" as="geometry"/>
                </mxCell>
                <mxCell id="538" value="1" style="edgeStyle=orthogonalEdgeStyle;rounded=0;html=1;" edge="1" parent="1" source="535" target="537">
                    <mxGeometry relative="1" as="geometry"/>
                </mxCell>
                <mxCell id="543" value="0" style="edgeStyle=orthogonalEdgeStyle;rounded=0;html=1;" edge="1" parent="1" source="535" target="542">
                    <mxGeometry x="-0.8824" relative="1" as="geometry">
                        <Array as="points">
                            <mxPoint x="500" y="775"/>
                            <mxPoint x="500" y="1020"/>
                            <mxPoint x="375" y="1020"/>
                        </Array>
                        <mxPoint as="offset"/>
                    </mxGeometry>
                </mxCell>
                <mxCell id="535" value="for (int i = 0; i &amp;lt; n; i++)" style="shape=hexagon;perimeter=hexagonPerimeter2;whiteSpace=wrap;html=1;fixedSize=1;" vertex="1" parent="1">
                    <mxGeometry x="285" y="750" width="180" height="50" as="geometry"/>
                </mxCell>
                <mxCell id="540" style="edgeStyle=orthogonalEdgeStyle;rounded=0;html=1;" edge="1" parent="1" source="537" target="539">
                    <mxGeometry relative="1" as="geometry"/>
                </mxCell>
                <mxCell id="537" value="cin &amp;gt;&amp;gt; k;" style="shape=parallelogram;perimeter=parallelogramPerimeter;whiteSpace=wrap;html=1;fixedSize=1;" vertex="1" parent="1">
                    <mxGeometry x="312.5" y="840" width="125" height="40" as="geometry"/>
                </mxCell>
                <mxCell id="541" style="edgeStyle=orthogonalEdgeStyle;rounded=0;html=1;entryX=-0.004;entryY=0.513;entryDx=0;entryDy=0;entryPerimeter=0;" edge="1" parent="1" source="539" target="535">
                    <mxGeometry relative="1" as="geometry">
                        <Array as="points">
                            <mxPoint x="375" y="1000"/>
                            <mxPoint x="250" y="1000"/>
                            <mxPoint x="250" y="776"/>
                        </Array>
                    </mxGeometry>
                </mxCell>
                <mxCell id="539" value="Push(st, k);" style="shape=process;whiteSpace=wrap;html=1;backgroundOutline=1;" vertex="1" parent="1">
                    <mxGeometry x="315" y="910" width="120" height="60" as="geometry"/>
                </mxCell>
                <mxCell id="545" style="edgeStyle=orthogonalEdgeStyle;rounded=0;html=1;" edge="1" parent="1" source="542" target="544">
                    <mxGeometry relative="1" as="geometry"/>
                </mxCell>
                <mxCell id="542" value="cout &amp;lt;&amp;lt; endl;" style="shape=parallelogram;perimeter=parallelogramPerimeter;whiteSpace=wrap;html=1;fixedSize=1;" vertex="1" parent="1">
                    <mxGeometry x="312.5" y="1040" width="125" height="40" as="geometry"/>
                </mxCell>
                <mxCell id="547" style="edgeStyle=orthogonalEdgeStyle;rounded=0;html=1;" edge="1" parent="1" source="544" target="546">
                    <mxGeometry relative="1" as="geometry"/>
                </mxCell>
                <mxCell id="544" value="printStack(st);" style="shape=process;whiteSpace=wrap;html=1;backgroundOutline=1;" vertex="1" parent="1">
                    <mxGeometry x="315" y="1109" width="120" height="60" as="geometry"/>
                </mxCell>
                <mxCell id="549" style="edgeStyle=orthogonalEdgeStyle;rounded=0;html=1;" edge="1" parent="1" source="546" target="548">
                    <mxGeometry relative="1" as="geometry"/>
                </mxCell>
                <mxCell id="546" value="cout &amp;lt;&amp;lt; endl;" style="shape=parallelogram;perimeter=parallelogramPerimeter;whiteSpace=wrap;html=1;fixedSize=1;" vertex="1" parent="1">
                    <mxGeometry x="312.5" y="1190" width="125" height="40" as="geometry"/>
                </mxCell>
                <mxCell id="551" style="edgeStyle=orthogonalEdgeStyle;rounded=0;html=1;" edge="1" parent="1" source="548" target="550">
                    <mxGeometry relative="1" as="geometry"/>
                </mxCell>
                <mxCell id="562" style="edgeStyle=orthogonalEdgeStyle;rounded=0;html=1;" edge="1" parent="1" source="548" target="561">
                    <mxGeometry relative="1" as="geometry">
                        <Array as="points">
                            <mxPoint x="530" y="1285"/>
                            <mxPoint x="530" y="1700"/>
                            <mxPoint x="360" y="1700"/>
                        </Array>
                    </mxGeometry>
                </mxCell>
                <mxCell id="548" value="for (int i = 0; i &amp;lt; n; i++)" style="shape=hexagon;perimeter=hexagonPerimeter2;whiteSpace=wrap;html=1;fixedSize=1;" vertex="1" parent="1">
                    <mxGeometry x="285" y="1260" width="180" height="50" as="geometry"/>
                </mxCell>
                <mxCell id="553" value="1" style="edgeStyle=orthogonalEdgeStyle;rounded=0;html=1;" edge="1" parent="1" source="550" target="552">
                    <mxGeometry relative="1" as="geometry"/>
                </mxCell>
                <mxCell id="554" value="0" style="edgeStyle=orthogonalEdgeStyle;rounded=0;html=1;" edge="1" parent="1" source="550">
                    <mxGeometry x="-0.8487" relative="1" as="geometry">
                        <mxPoint x="360" y="1510" as="targetPoint"/>
                        <Array as="points">
                            <mxPoint x="490" y="1370"/>
                            <mxPoint x="490" y="1510"/>
                        </Array>
                        <mxPoint as="offset"/>
                    </mxGeometry>
                </mxCell>
                <mxCell id="550" value="if (count % 2 == 0)" style="rhombus;whiteSpace=wrap;html=1;" vertex="1" parent="1">
                    <mxGeometry x="302.5" y="1340" width="145" height="60" as="geometry"/>
                </mxCell>
                <mxCell id="555" style="edgeStyle=orthogonalEdgeStyle;rounded=0;html=1;" edge="1" parent="1" source="552">
                    <mxGeometry relative="1" as="geometry">
                        <mxPoint x="360" y="1510" as="targetPoint"/>
                        <Array as="points">
                            <mxPoint x="230" y="1510"/>
                        </Array>
                    </mxGeometry>
                </mxCell>
                <mxCell id="552" value="Push(st2, st.head-&amp;gt;data);" style="shape=process;whiteSpace=wrap;html=1;backgroundOutline=1;" vertex="1" parent="1">
                    <mxGeometry x="170" y="1420" width="120" height="60" as="geometry"/>
                </mxCell>
                <mxCell id="559" style="edgeStyle=orthogonalEdgeStyle;rounded=0;html=1;" edge="1" parent="1" source="556" target="558">
                    <mxGeometry relative="1" as="geometry"/>
                </mxCell>
                <mxCell id="556" value="pop(st);" style="shape=process;whiteSpace=wrap;html=1;backgroundOutline=1;" vertex="1" parent="1">
                    <mxGeometry x="300" y="1540" width="120" height="60" as="geometry"/>
                </mxCell>
                <mxCell id="557" value="" style="endArrow=classic;html=1;rounded=0;" edge="1" parent="1" target="556">
                    <mxGeometry width="50" height="50" relative="1" as="geometry">
                        <mxPoint x="360" y="1510" as="sourcePoint"/>
                        <mxPoint x="370" y="1540" as="targetPoint"/>
                    </mxGeometry>
                </mxCell>
                <mxCell id="560" style="edgeStyle=orthogonalEdgeStyle;rounded=0;html=1;entryX=0.004;entryY=0.527;entryDx=0;entryDy=0;entryPerimeter=0;" edge="1" parent="1" source="558" target="548">
                    <mxGeometry relative="1" as="geometry">
                        <Array as="points">
                            <mxPoint x="360" y="1690"/>
                            <mxPoint x="150" y="1690"/>
                            <mxPoint x="150" y="1286"/>
                        </Array>
                    </mxGeometry>
                </mxCell>
                <mxCell id="558" value="count++;" style="rounded=0;whiteSpace=wrap;html=1;" vertex="1" parent="1">
                    <mxGeometry x="285" y="1624" width="150" height="40" as="geometry"/>
                </mxCell>
                <mxCell id="561" value="printStack(st2);" style="shape=process;whiteSpace=wrap;html=1;backgroundOutline=1;" vertex="1" parent="1">
                    <mxGeometry x="300" y="1724" width="120" height="60" as="geometry"/>
                </mxCell>
            </root>
        </mxGraphModel>
    </diagram>
</mxfile>